<svg width="250" height="35" viewBox="0 0 250 35" fill="none" xmlns="http://www.w3.org/2000/svg">
<path d="M7.82 14.82V18.845H15.695V24.06H7.82V28.505H16.745V34H0.96V9.325H16.745V14.82H7.82ZM35.5698 34L30.7748 27.035L26.6798 34H18.8748L26.8898 21.365L18.5948 9.325H26.6798L31.3348 16.115L35.3248 9.325H43.1298L35.2198 21.75L43.6548 34H35.5698ZM65.5038 17.55C65.5038 19.0433 65.1538 20.4083 64.4538 21.645C63.7772 22.8583 62.7388 23.8383 61.3388 24.585C59.9622 25.3083 58.2705 25.67 56.2638 25.67H52.8688V34H46.0088V9.325H56.2638C58.2472 9.325 59.9272 9.675 61.3038 10.375C62.7038 11.075 63.7538 12.0433 64.4538 13.28C65.1538 14.5167 65.5038 15.94 65.5038 17.55ZM55.5988 20.21C57.5355 20.21 58.5038 19.3233 58.5038 17.55C58.5038 15.7533 57.5355 14.855 55.5988 14.855H52.8688V20.21H55.5988ZM75.1198 14.82V18.845H82.9948V24.06H75.1198V28.505H84.0448V34H68.2598V9.325H84.0448V14.82H75.1198ZM99.9296 34L95.0296 24.9H94.2946V34H87.4346V9.325H98.2496C100.233 9.325 101.913 9.675 103.29 10.375C104.666 11.0517 105.705 11.9967 106.405 13.21C107.105 14.4 107.455 15.7417 107.455 17.235C107.455 18.915 106.988 20.3967 106.055 21.68C105.145 22.94 103.803 23.8383 102.03 24.375L107.595 34H99.9296ZM94.2946 20.21H97.6896C98.6229 20.21 99.3229 19.9883 99.7896 19.545C100.256 19.1017 100.49 18.46 100.49 17.62C100.49 16.8267 100.245 16.2083 99.7546 15.765C99.2879 15.2983 98.5996 15.065 97.6896 15.065H94.2946V20.21ZM117.434 9.325V34H110.574V9.325H117.434ZM128.201 14.82V18.845H136.076V24.06H128.201V28.505H137.126V34H121.341V9.325H137.126V14.82H128.201ZM129.111 5.09L123.476 7.89V3.305L129.111 0.609998L134.676 3.305V7.89L129.111 5.09ZM163.371 34H156.511L147.376 20.21V34H140.516V9.325H147.376L156.511 23.29V9.325H163.371V34ZM166.438 21.61C166.438 19.1833 166.94 17.025 167.943 15.135C168.97 13.2217 170.417 11.74 172.283 10.69C174.15 9.61667 176.297 9.08 178.723 9.08C181.803 9.08 184.393 9.90833 186.493 11.565C188.593 13.1983 189.947 15.4267 190.553 18.25H183.168C182.725 17.3167 182.107 16.605 181.313 16.115C180.543 15.625 179.645 15.38 178.618 15.38C177.032 15.38 175.76 15.9517 174.803 17.095C173.87 18.215 173.403 19.72 173.403 21.61C173.403 23.5233 173.87 25.0517 174.803 26.195C175.76 27.315 177.032 27.875 178.618 27.875C179.645 27.875 180.543 27.63 181.313 27.14C182.107 26.65 182.725 25.9383 183.168 25.005H190.553C189.947 27.8283 188.593 30.0683 186.493 31.725C184.393 33.3583 181.803 34.175 178.723 34.175C176.297 34.175 174.15 33.65 172.283 32.6C170.417 31.5267 168.97 30.045 167.943 28.155C166.94 26.2417 166.438 24.06 166.438 21.61ZM200.662 9.325V34H193.802V9.325H200.662ZM220.178 29.975H211.428L210.098 34H202.888L211.883 9.325H219.793L228.753 34H221.508L220.178 29.975ZM218.463 24.725L215.803 16.745L213.178 24.725H218.463ZM240.299 34.245C237.429 34.245 235.073 33.5683 233.229 32.215C231.386 30.8383 230.394 28.8783 230.254 26.335H237.569C237.639 27.1983 237.896 27.8283 238.339 28.225C238.783 28.6217 239.354 28.82 240.054 28.82C240.684 28.82 241.198 28.6683 241.594 28.365C242.014 28.0383 242.224 27.595 242.224 27.035C242.224 26.3117 241.886 25.7517 241.209 25.355C240.533 24.9583 239.436 24.515 237.919 24.025C236.309 23.4883 235.003 22.975 233.999 22.485C233.019 21.9717 232.156 21.2367 231.409 20.28C230.686 19.3 230.324 18.0283 230.324 16.465C230.324 14.8783 230.721 13.525 231.514 12.405C232.308 11.2617 233.404 10.3983 234.804 9.815C236.204 9.23167 237.791 8.94 239.564 8.94C242.434 8.94 244.721 9.61667 246.424 10.97C248.151 12.3 249.073 14.1783 249.189 16.605H241.734C241.711 15.8583 241.478 15.2983 241.034 14.925C240.614 14.5517 240.066 14.365 239.389 14.365C238.876 14.365 238.456 14.5167 238.129 14.82C237.803 15.1233 237.639 15.555 237.639 16.115C237.639 16.5817 237.814 16.99 238.164 17.34C238.538 17.6667 238.993 17.9583 239.529 18.215C240.066 18.4483 240.859 18.7517 241.909 19.125C243.473 19.6617 244.756 20.1983 245.759 20.735C246.786 21.2483 247.661 21.9833 248.384 22.94C249.131 23.8733 249.504 25.0633 249.504 26.51C249.504 27.98 249.131 29.2983 248.384 30.465C247.661 31.6317 246.599 32.5533 245.199 33.23C243.823 33.9067 242.189 34.245 240.299 34.245Z" fill="url(#paint0_linear_14_37)"/>
<defs>
<linearGradient id="paint0_linear_14_37" x1="125" y1="4" x2="125" y2="40" gradientUnits="userSpaceOnUse">
<stop stop-color="#5BADFF"/>
<stop offset="1" stop-color="#1373D1"/>
</linearGradient>
</defs>
</svg>
