<svg width="44" height="30" viewBox="0 0 44 30" fill="none" xmlns="http://www.w3.org/2000/svg">
<path d="M20.0997 30V0.199997H0.699686V4.4H15.3797V13.36H2.29969V17.56H15.3797V30H20.0997Z" fill="white"/>
<path d="M21.4941 30V0.199997H32.3341C34.3341 0.199997 36.0941 0.573332 37.6141 1.32C39.1341 2.04 40.3207 3.10666 41.1741 4.52C42.0541 5.90667 42.4941 7.57333 42.4941 9.52C42.4941 11.5733 41.9741 13.3333 40.9341 14.8C39.9207 16.2667 38.5474 17.3333 36.8141 18L43.6941 30H38.3341L31.0141 17L34.0941 18.8H26.2141V30H21.4941ZM26.2141 14.6H32.4141C33.5074 14.6 34.4541 14.3867 35.2541 13.96C36.0541 13.5333 36.6674 12.9467 37.0941 12.2C37.5474 11.4267 37.7741 10.52 37.7741 9.48C37.7741 8.44 37.5474 7.54666 37.0941 6.8C36.6674 6.02667 36.0541 5.44 35.2541 5.04C34.4541 4.61333 33.5074 4.4 32.4141 4.4H26.2141V14.6Z" fill="white"/>
</svg>
