<svg width="208" height="30" viewBox="0 0 208 30" fill="none" xmlns="http://www.w3.org/2000/svg">
<path d="M4.18 10.3V13.8H8.88V16.02H4.18V19.72H9.48V22H1.38V8.02H9.48V10.3H4.18ZM22.7845 22L19.7645 17.3L17.0245 22H13.8645L18.2645 14.96L13.8045 8.04H17.0245L20.0445 12.72L22.7645 8.04H25.9245L21.5445 15.06L26.0045 22H22.7845ZM40.7155 12.36C40.7155 13.1067 40.5355 13.8067 40.1755 14.46C39.8288 15.1133 39.2755 15.64 38.5155 16.04C37.7688 16.44 36.8221 16.64 35.6755 16.64H33.3355V22H30.5355V8.04H35.6755C36.7555 8.04 37.6755 8.22667 38.4355 8.6C39.1955 8.97333 39.7621 9.48667 40.1355 10.14C40.5221 10.7933 40.7155 11.5333 40.7155 12.36ZM35.5555 14.38C36.3288 14.38 36.9021 14.2067 37.2755 13.86C37.6488 13.5 37.8355 13 37.8355 12.36C37.8355 11 37.0755 10.32 35.5555 10.32H33.3355V14.38H35.5555ZM47.9034 10.3V13.8H52.6034V16.02H47.9034V19.72H53.2034V22H45.1034V8.02H53.2034V10.3H47.9034ZM65.348 22L62.268 16.56H60.948V22H58.148V8.04H63.388C64.468 8.04 65.388 8.23333 66.148 8.62C66.908 8.99333 67.4746 9.50667 67.848 10.16C68.2346 10.8 68.428 11.52 68.428 12.32C68.428 13.24 68.1613 14.0733 67.628 14.82C67.0946 15.5533 66.3013 16.06 65.248 16.34L68.588 22H65.348ZM60.948 14.46H63.288C64.048 14.46 64.6146 14.28 64.988 13.92C65.3613 13.5467 65.548 13.0333 65.548 12.38C65.548 11.74 65.3613 11.2467 64.988 10.9C64.6146 10.54 64.048 10.36 63.288 10.36H60.948V14.46ZM76.1605 8.04V22H73.3605V8.04H76.1605ZM84.1269 10.3V13.8H88.8269V16.02H84.1269V19.72H89.4269V22H81.3269V8.02H89.4269V10.3H84.1269ZM85.2869 5.56L82.3069 7.24V5.2L85.2869 3.58L88.2469 5.2V7.24L85.2869 5.56ZM106.311 22H103.511L97.1714 12.42V22H94.3714V8.02H97.1714L103.511 17.62V8.02H106.311V22ZM110.798 15C110.798 13.6267 111.105 12.4 111.718 11.32C112.345 10.2267 113.192 9.38 114.258 8.78C115.338 8.16667 116.545 7.86 117.878 7.86C119.438 7.86 120.805 8.26 121.978 9.06C123.152 9.86 123.972 10.9667 124.438 12.38H121.218C120.898 11.7133 120.445 11.2133 119.858 10.88C119.285 10.5467 118.618 10.38 117.858 10.38C117.045 10.38 116.318 10.5733 115.678 10.96C115.052 11.3333 114.558 11.8667 114.198 12.56C113.852 13.2533 113.678 14.0667 113.678 15C113.678 15.92 113.852 16.7333 114.198 17.44C114.558 18.1333 115.052 18.6733 115.678 19.06C116.318 19.4333 117.045 19.62 117.858 19.62C118.618 19.62 119.285 19.4533 119.858 19.12C120.445 18.7733 120.898 18.2667 121.218 17.6H124.438C123.972 19.0267 123.152 20.14 121.978 20.94C120.818 21.7267 119.452 22.12 117.878 22.12C116.545 22.12 115.338 21.82 114.258 21.22C113.192 20.6067 112.345 19.76 111.718 18.68C111.105 17.6 110.798 16.3733 110.798 15ZM132.03 8.04V22H129.23V8.04H132.03ZM145.756 19.34H140.196L139.276 22H136.336L141.356 8.02H144.616L149.636 22H146.676L145.756 19.34ZM144.996 17.1L142.976 11.26L140.956 17.1H144.996ZM158.733 22.14C157.759 22.14 156.879 21.9733 156.093 21.64C155.319 21.3067 154.706 20.8267 154.253 20.2C153.799 19.5733 153.566 18.8333 153.553 17.98H156.553C156.593 18.5533 156.793 19.0067 157.153 19.34C157.526 19.6733 158.033 19.84 158.673 19.84C159.326 19.84 159.839 19.6867 160.213 19.38C160.586 19.06 160.773 18.6467 160.773 18.14C160.773 17.7267 160.646 17.3867 160.393 17.12C160.139 16.8533 159.819 16.6467 159.433 16.5C159.059 16.34 158.539 16.1667 157.873 15.98C156.966 15.7133 156.226 15.4533 155.653 15.2C155.093 14.9333 154.606 14.54 154.193 14.02C153.793 13.4867 153.593 12.78 153.593 11.9C153.593 11.0733 153.799 10.3533 154.213 9.74C154.626 9.12667 155.206 8.66 155.953 8.34C156.699 8.00667 157.553 7.84 158.513 7.84C159.953 7.84 161.119 8.19333 162.013 8.9C162.919 9.59333 163.419 10.5667 163.513 11.82H160.433C160.406 11.34 160.199 10.9467 159.813 10.64C159.439 10.32 158.939 10.16 158.313 10.16C157.766 10.16 157.326 10.3 156.993 10.58C156.673 10.86 156.513 11.2667 156.513 11.8C156.513 12.1733 156.633 12.4867 156.873 12.74C157.126 12.98 157.433 13.18 157.793 13.34C158.166 13.4867 158.686 13.66 159.353 13.86C160.259 14.1267 160.999 14.3933 161.573 14.66C162.146 14.9267 162.639 15.3267 163.053 15.86C163.466 16.3933 163.673 17.0933 163.673 17.96C163.673 18.7067 163.479 19.4 163.093 20.04C162.706 20.68 162.139 21.1933 161.393 21.58C160.646 21.9533 159.759 22.14 158.733 22.14Z" fill="#C5C5C5"/>
</svg>
