<svg width="183" height="36" viewBox="0 0 183 36" fill="none" xmlns="http://www.w3.org/2000/svg">
<path d="M21.703 13.55C21.703 15.0433 21.353 16.4083 20.653 17.645C19.9764 18.8583 18.938 19.8383 17.538 20.585C16.1614 21.3083 14.4697 21.67 12.463 21.67H9.06805V30H2.20805V5.325H12.463C14.4464 5.325 16.1264 5.675 17.503 6.375C18.903 7.075 19.953 8.04333 20.653 9.28C21.353 10.5167 21.703 11.94 21.703 13.55ZM11.798 16.21C13.7347 16.21 14.703 15.3233 14.703 13.55C14.703 11.7533 13.7347 10.855 11.798 10.855H9.06805V16.21H11.798ZM36.954 30L32.054 20.9H31.319V30H24.459V5.325H35.274C37.2574 5.325 38.9374 5.675 40.314 6.375C41.6907 7.05167 42.729 7.99667 43.429 9.21C44.129 10.4 44.479 11.7417 44.479 13.235C44.479 14.915 44.0124 16.3967 43.079 17.68C42.169 18.94 40.8274 19.8383 39.054 20.375L44.619 30H36.954ZM31.319 16.21H34.714C35.6474 16.21 36.3474 15.9883 36.814 15.545C37.2807 15.1017 37.514 14.46 37.514 13.62C37.514 12.8267 37.269 12.2083 36.779 11.765C36.3124 11.2983 35.624 11.065 34.714 11.065H31.319V16.21ZM59.4287 30.245C57.1187 30.245 54.9953 29.7083 53.0587 28.635C51.122 27.5383 49.582 26.0333 48.4387 24.12C47.3187 22.1833 46.7587 20.0017 46.7587 17.575C46.7587 15.1483 47.3187 12.9783 48.4387 11.065C49.582 9.12833 51.122 7.62333 53.0587 6.55C54.9953 5.47667 57.1187 4.94 59.4287 4.94C61.762 4.94 63.8853 5.47667 65.7987 6.55C67.7353 7.62333 69.2637 9.12833 70.3837 11.065C71.5037 12.9783 72.0637 15.1483 72.0637 17.575C72.0637 20.0017 71.5037 22.1833 70.3837 24.12C69.2637 26.0333 67.7353 27.5383 65.7987 28.635C63.862 29.7083 61.7387 30.245 59.4287 30.245ZM59.4287 23.875C61.1787 23.875 62.5553 23.3033 63.5587 22.16C64.5853 21.0167 65.0987 19.4883 65.0987 17.575C65.0987 15.615 64.5853 14.075 63.5587 12.955C62.5553 11.8117 61.1787 11.24 59.4287 11.24C57.6553 11.24 56.267 11.8117 55.2637 12.955C54.2603 14.075 53.7587 15.615 53.7587 17.575C53.7587 19.5117 54.2603 21.0517 55.2637 22.195C56.267 23.315 57.6553 23.875 59.4287 23.875ZM91.4925 5.325V21.67C91.4925 24.4467 90.7342 26.57 89.2175 28.04C87.7242 29.51 85.6592 30.245 83.0225 30.245C80.2225 30.245 77.9825 29.4633 76.3025 27.9C74.6458 26.3367 73.8175 24.085 73.8175 21.145H80.6075C80.6308 23.0817 81.3425 24.05 82.7425 24.05C84.0025 24.05 84.6325 23.2567 84.6325 21.67V5.325H91.4925ZM102.447 10.82V14.845H110.322V20.06H102.447V24.505H111.372V30H95.587V5.325H111.372V10.82H102.447ZM133.347 5.325V10.785H126.767V30H119.907V10.785H113.397V5.325H133.347ZM147.715 30.245C145.405 30.245 143.281 29.7083 141.345 28.635C139.408 27.5383 137.868 26.0333 136.725 24.12C135.605 22.1833 135.045 20.0017 135.045 17.575C135.045 15.1483 135.605 12.9783 136.725 11.065C137.868 9.12833 139.408 7.62333 141.345 6.55C143.281 5.47667 145.405 4.94 147.715 4.94C150.048 4.94 152.171 5.47667 154.085 6.55C156.021 7.62333 157.55 9.12833 158.67 11.065C159.79 12.9783 160.35 15.1483 160.35 17.575C160.35 20.0017 159.79 22.1833 158.67 24.12C157.55 26.0333 156.021 27.5383 154.085 28.635C152.148 29.7083 150.025 30.245 147.715 30.245ZM147.715 23.875C149.465 23.875 150.841 23.3033 151.845 22.16C152.871 21.0167 153.385 19.4883 153.385 17.575C153.385 15.615 152.871 14.075 151.845 12.955C150.841 11.8117 149.465 11.24 147.715 11.24C145.941 11.24 144.553 11.8117 143.55 12.955C142.546 14.075 142.045 15.615 142.045 17.575C142.045 19.5117 142.546 21.0517 143.55 22.195C144.553 23.315 145.941 23.875 147.715 23.875ZM172.744 30.245C169.874 30.245 167.517 29.5683 165.674 28.215C163.83 26.8383 162.839 24.8783 162.699 22.335H170.014C170.084 23.1983 170.34 23.8283 170.784 24.225C171.227 24.6217 171.799 24.82 172.499 24.82C173.129 24.82 173.642 24.6683 174.039 24.365C174.459 24.0383 174.669 23.595 174.669 23.035C174.669 22.3117 174.33 21.7517 173.654 21.355C172.977 20.9583 171.88 20.515 170.364 20.025C168.754 19.4883 167.447 18.975 166.444 18.485C165.464 17.9717 164.6 17.2367 163.854 16.28C163.13 15.3 162.769 14.0283 162.769 12.465C162.769 10.8783 163.165 9.525 163.959 8.405C164.752 7.26167 165.849 6.39833 167.249 5.815C168.649 5.23167 170.235 4.94 172.009 4.94C174.879 4.94 177.165 5.61667 178.869 6.97C180.595 8.3 181.517 10.1783 181.634 12.605H174.179C174.155 11.8583 173.922 11.2983 173.479 10.925C173.059 10.5517 172.51 10.365 171.834 10.365C171.32 10.365 170.9 10.5167 170.574 10.82C170.247 11.1233 170.084 11.555 170.084 12.115C170.084 12.5817 170.259 12.99 170.609 13.34C170.982 13.6667 171.437 13.9583 171.974 14.215C172.51 14.4483 173.304 14.7517 174.354 15.125C175.917 15.6617 177.2 16.1983 178.204 16.735C179.23 17.2483 180.105 17.9833 180.829 18.94C181.575 19.8733 181.949 21.0633 181.949 22.51C181.949 23.98 181.575 25.2983 180.829 26.465C180.105 27.6317 179.044 28.5533 177.644 29.23C176.267 29.9067 174.634 30.245 172.744 30.245Z" fill="url(#paint0_linear_19_106)"/>
<defs>
<linearGradient id="paint0_linear_19_106" x1="91.748" y1="0" x2="91.748" y2="36" gradientUnits="userSpaceOnUse">
<stop stop-color="#FF8660"/>
<stop offset="1" stop-color="#D5491D"/>
</linearGradient>
</defs>
</svg>
